<svg xmlns="http://www.w3.org/2000/svg" viewBox="0 0 1920 800" width="100%" height="100%" preserveAspectRatio="xMidYMid slice" role="img" aria-label="こだわりの家電やガジェット、ギフトに囲まれた部屋で、家族が商品選びを楽しんでいるイラスト">
<defs>
<linearGradient id="wall" x1="0" y1="0" x2="0" y2="1"><stop offset="0%" stop-color="#D6E8F7"/><stop offset="55%" stop-color="#E7F1FA"/><stop offset="100%" stop-color="#F4F8FC"/></linearGradient>
<linearGradient id="floor" x1="0" y1="0" x2="0" y2="1"><stop offset="0%" stop-color="#EAD4B3"/><stop offset="100%" stop-color="#DDBF96"/></linearGradient>
<linearGradient id="glass" x1="0" y1="0" x2="0" y2="1"><stop offset="0%" stop-color="#BFE0F6"/><stop offset="100%" stop-color="#E9F6FD"/></linearGradient>
<radialGradient id="lampGlow"><stop offset="0%" stop-color="#FFE3A6" stop-opacity="0.85"/><stop offset="100%" stop-color="#FFE3A6" stop-opacity="0"/></radialGradient>
</defs>
<rect width="1920" height="800" fill="url(#wall)"/>
<g fill="#C9DCEE" opacity="0.45"><circle cx="40" cy="60" r="3" /><circle cx="120" cy="60" r="3" /><circle cx="200" cy="60" r="3" /><circle cx="280" cy="60" r="3" /><circle cx="360" cy="60" r="3" /><circle cx="440" cy="60" r="3" /><circle cx="520" cy="60" r="3" /><circle cx="600" cy="60" r="3" /><circle cx="680" cy="60" r="3" /><circle cx="760" cy="60" r="3" /><circle cx="840" cy="60" r="3" /><circle cx="920" cy="60" r="3" /><circle cx="1000" cy="60" r="3" /><circle cx="1080" cy="60" r="3" /><circle cx="1160" cy="60" r="3" /><circle cx="1240" cy="60" r="3" /><circle cx="1320" cy="60" r="3" /><circle cx="1400" cy="60" r="3" /><circle cx="1480" cy="60" r="3" /><circle cx="1560" cy="60" r="3" /><circle cx="1640" cy="60" r="3" /><circle cx="1720" cy="60" r="3" /><circle cx="1800" cy="60" r="3" /><circle cx="1880" cy="60" r="3" /><circle cx="80" cy="140" r="3" /><circle cx="160" cy="140" r="3" /><circle cx="240" cy="140" r="3" /><circle cx="320" cy="140" r="3" /><circle cx="400" cy="140" r="3" /><circle cx="480" cy="140" r="3" /><circle cx="560" cy="140" r="3" /><circle cx="640" cy="140" r="3" /><circle cx="720" cy="140" r="3" /><circle cx="800" cy="140" r="3" /><circle cx="880" cy="140" r="3" /><circle cx="960" cy="140" r="3" /><circle cx="1040" cy="140" r="3" /><circle cx="1120" cy="140" r="3" /><circle cx="1200" cy="140" r="3" /><circle cx="1280" cy="140" r="3" /><circle cx="1360" cy="140" r="3" /><circle cx="1440" cy="140" r="3" /><circle cx="1520" cy="140" r="3" /><circle cx="1600" cy="140" r="3" /><circle cx="1680" cy="140" r="3" /><circle cx="1760" cy="140" r="3" /><circle cx="1840" cy="140" r="3" /><circle cx="40" cy="220" r="3" /><circle cx="120" cy="220" r="3" /><circle cx="200" cy="220" r="3" /><circle cx="280" cy="220" r="3" /><circle cx="360" cy="220" r="3" /><circle cx="440" cy="220" r="3" /><circle cx="520" cy="220" r="3" /><circle cx="600" cy="220" r="3" /><circle cx="680" cy="220" r="3" /><circle cx="760" cy="220" r="3" /><circle cx="840" cy="220" r="3" /><circle cx="920" cy="220" r="3" /><circle cx="1000" cy="220" r="3" /><circle cx="1080" cy="220" r="3" /><circle cx="1160" cy="220" r="3" /><circle cx="1240" cy="220" r="3" /><circle cx="1320" cy="220" r="3" /><circle cx="1400" cy="220" r="3" /><circle cx="1480" cy="220" r="3" /><circle cx="1560" cy="220" r="3" /><circle cx="1640" cy="220" r="3" /><circle cx="1720" cy="220" r="3" /><circle cx="1800" cy="220" r="3" /><circle cx="1880" cy="220" r="3" /><circle cx="80" cy="300" r="3" /><circle cx="160" cy="300" r="3" /><circle cx="240" cy="300" r="3" /><circle cx="320" cy="300" r="3" /><circle cx="400" cy="300" r="3" /><circle cx="480" cy="300" r="3" /><circle cx="560" cy="300" r="3" /><circle cx="640" cy="300" r="3" /><circle cx="720" cy="300" r="3" /><circle cx="800" cy="300" r="3" /><circle cx="880" cy="300" r="3" /><circle cx="960" cy="300" r="3" /><circle cx="1040" cy="300" r="3" /><circle cx="1120" cy="300" r="3" /><circle cx="1200" cy="300" r="3" /><circle cx="1280" cy="300" r="3" /><circle cx="1360" cy="300" r="3" /><circle cx="1440" cy="300" r="3" /><circle cx="1520" cy="300" r="3" /><circle cx="1600" cy="300" r="3" /><circle cx="1680" cy="300" r="3" /><circle cx="1760" cy="300" r="3" /><circle cx="1840" cy="300" r="3" /><circle cx="40" cy="380" r="3" /><circle cx="120" cy="380" r="3" /><circle cx="200" cy="380" r="3" /><circle cx="280" cy="380" r="3" /><circle cx="360" cy="380" r="3" /><circle cx="440" cy="380" r="3" /><circle cx="520" cy="380" r="3" /><circle cx="600" cy="380" r="3" /><circle cx="680" cy="380" r="3" /><circle cx="760" cy="380" r="3" /><circle cx="840" cy="380" r="3" /><circle cx="920" cy="380" r="3" /><circle cx="1000" cy="380" r="3" /><circle cx="1080" cy="380" r="3" /><circle cx="1160" cy="380" r="3" /><circle cx="1240" cy="380" r="3" /><circle cx="1320" cy="380" r="3" /><circle cx="1400" cy="380" r="3" /><circle cx="1480" cy="380" r="3" /><circle cx="1560" cy="380" r="3" /><circle cx="1640" cy="380" r="3" /><circle cx="1720" cy="380" r="3" /><circle cx="1800" cy="380" r="3" /><circle cx="1880" cy="380" r="3" /><circle cx="80" cy="460" r="3" /><circle cx="160" cy="460" r="3" /><circle cx="240" cy="460" r="3" /><circle cx="320" cy="460" r="3" /><circle cx="400" cy="460" r="3" /><circle cx="480" cy="460" r="3" /><circle cx="560" cy="460" r="3" /><circle cx="640" cy="460" r="3" /><circle cx="720" cy="460" r="3" /><circle cx="800" cy="460" r="3" /><circle cx="880" cy="460" r="3" /><circle cx="960" cy="460" r="3" /><circle cx="1040" cy="460" r="3" /><circle cx="1120" cy="460" r="3" /><circle cx="1200" cy="460" r="3" /><circle cx="1280" cy="460" r="3" /><circle cx="1360" cy="460" r="3" /><circle cx="1440" cy="460" r="3" /><circle cx="1520" cy="460" r="3" /><circle cx="1600" cy="460" r="3" /><circle cx="1680" cy="460" r="3" /><circle cx="1760" cy="460" r="3" /><circle cx="1840" cy="460" r="3" /><circle cx="40" cy="540" r="3" /><circle cx="120" cy="540" r="3" /><circle cx="200" cy="540" r="3" /><circle cx="280" cy="540" r="3" /><circle cx="360" cy="540" r="3" /><circle cx="440" cy="540" r="3" /><circle cx="520" cy="540" r="3" /><circle cx="600" cy="540" r="3" /><circle cx="680" cy="540" r="3" /><circle cx="760" cy="540" r="3" /><circle cx="840" cy="540" r="3" /><circle cx="920" cy="540" r="3" /><circle cx="1000" cy="540" r="3" /><circle cx="1080" cy="540" r="3" /><circle cx="1160" cy="540" r="3" /><circle cx="1240" cy="540" r="3" /><circle cx="1320" cy="540" r="3" /><circle cx="1400" cy="540" r="3" /><circle cx="1480" cy="540" r="3" /><circle cx="1560" cy="540" r="3" /><circle cx="1640" cy="540" r="3" /><circle cx="1720" cy="540" r="3" /><circle cx="1800" cy="540" r="3" /><circle cx="1880" cy="540" r="3" /></g>
<rect x="150" y="96" width="420" height="380" rx="18" fill="#FFFFFF"/>
<rect x="170" y="116" width="380" height="340" rx="10" fill="url(#glass)"/>
<g opacity="0.85" fill="#FFFFFF"><ellipse cx="280" cy="200" rx="58" ry="19"/><ellipse cx="246" cy="206" rx="34" ry="14"/><ellipse cx="316" cy="207" rx="30" ry="12"/><ellipse cx="286" cy="186" rx="32" ry="17"/></g>
<g opacity="0.7" fill="#FFFFFF"><ellipse cx="450" cy="300" rx="42" ry="14"/><ellipse cx="426" cy="304" rx="25" ry="10"/><ellipse cx="476" cy="305" rx="22" ry="9"/></g>
<rect x="356" y="116" width="8" height="340" fill="#FFFFFF"/><rect x="170" y="282" width="380" height="8" fill="#FFFFFF"/>
<path d="M 130 90 L 238 90 Q 214 290 246 488 L 130 488 Z" fill="#F6C9B4"/>
<path d="M 590 90 L 482 90 Q 506 290 474 488 L 590 488 Z" fill="#F6C9B4"/>
<rect x="118" y="80" width="484" height="14" rx="7" fill="#C9A57A"/>
<rect x="140" y="474" width="440" height="16" rx="6" fill="#FFFFFF"/>
<line x1="760" y1="0" x2="760" y2="150" stroke="#9CAAB6" stroke-width="3"/>
<circle cx="760" cy="200" r="120" fill="url(#lampGlow)"/>
<path d="M 712 196 Q 714 150 760 146 Q 806 150 808 196 Z" fill="#F2B04C"/>
<ellipse cx="760" cy="198" rx="50" ry="8" fill="#E0973A"/>
<circle cx="760" cy="208" r="9" fill="#FFF3D4"/>
<circle cx="1010" cy="170" r="50" fill="#FFFFFF" stroke="#8FB8C9" stroke-width="8"/>
<line x1="1010" y1="170" x2="1010" y2="138" stroke="#53687E" stroke-width="5" stroke-linecap="round"/>
<line x1="1010" y1="170" x2="1034" y2="182" stroke="#53687E" stroke-width="5" stroke-linecap="round"/>
<circle cx="1010" cy="170" r="5" fill="#E8705F"/>
<rect x="1440" y="86" width="300" height="96" rx="18" fill="#FFFFFF"/>
<rect x="1440" y="152" width="300" height="30" rx="12" fill="#EEF3F8"/>
<line x1="1464" y1="166" x2="1716" y2="166" stroke="#C7D3DF" stroke-width="4" stroke-linecap="round"/>
<circle cx="1712" cy="112" r="5" fill="#6FB6B0"/>
<g stroke="#9FC6E4" stroke-width="5" fill="none" stroke-linecap="round" opacity="0.8"><path d="M 1500 206 q 20 18 0 36 q -20 18 0 36"/><path d="M 1590 206 q 20 18 0 36 q -20 18 0 36"/><path d="M 1680 206 q 20 18 0 36 q -20 18 0 36"/></g>
<rect x="1150" y="130" width="150" height="120" rx="6" fill="#C9A57A"/>
<rect x="1162" y="142" width="126" height="96" rx="3" fill="#FFF7EC"/>
<path d="M 1162 238 L 1204 186 L 1230 212 L 1256 178 L 1288 238 Z" fill="#9AC7AE"/>
<circle cx="1260" cy="166" r="10" fill="#FFB45C"/>
<rect x="1110" y="336" width="380" height="14" rx="4" fill="#C9A57A"/>
<path d="M 1140 350 l 0 22 l 22 -22 Z M 1460 350 l 0 22 l -22 -22 Z" fill="#B18D62"/>
<rect x="1130" y="252" width="20" height="84" rx="3" fill="#5C97C4"/>
<rect x="1134" y="264" width="12" height="4" rx="2" fill="#FFFFFF" opacity="0.7"/>
<rect x="1152" y="240" width="20" height="96" rx="3" fill="#E8705F"/>
<rect x="1156" y="252" width="12" height="4" rx="2" fill="#FFFFFF" opacity="0.7"/>
<rect x="1176" y="260" width="20" height="76" rx="3" fill="#F2B04C"/>
<rect x="1180" y="272" width="12" height="4" rx="2" fill="#FFFFFF" opacity="0.7"/>
<rect x="1198" y="246" width="20" height="90" rx="3" fill="#6FB6B0"/>
<rect x="1202" y="258" width="12" height="4" rx="2" fill="#FFFFFF" opacity="0.7"/>
<rect x="1250" y="282" width="84" height="54" rx="10" fill="#53687E"/>
<rect x="1262" y="272" width="26" height="12" rx="4" fill="#53687E"/>
<circle cx="1292" cy="309" r="19" fill="#E7F1FA"/><circle cx="1292" cy="309" r="11" fill="#3F5A72"/>
<circle cx="1320" cy="292" r="4" fill="#F2B04C"/>
<rect x="1356" y="266" width="42" height="70" rx="12" fill="#F7F1E6"/>
<circle cx="1377" cy="314" r="12" fill="#C8BBA6"/><circle cx="1377" cy="286" r="6" fill="#C8BBA6"/>
<path d="M 1418 336 L 1414 304 L 1470 304 L 1466 336 Z" fill="#E8705F"/>
<circle cx="1442" cy="292" r="16" fill="#8FC4A2"/><circle cx="1428" cy="300" r="10" fill="#7CB891"/><circle cx="1456" cy="300" r="11" fill="#7CB891"/>
<rect x="0" y="620" width="1920" height="180" fill="url(#floor)"/>
<line x1="0" y1="668" x2="1920" y2="668" stroke="#D2B48A" stroke-width="3" opacity="0.6"/>
<line x1="0" y1="724" x2="1920" y2="724" stroke="#D2B48A" stroke-width="3" opacity="0.6"/>
<line x1="0" y1="780" x2="1920" y2="780" stroke="#D2B48A" stroke-width="3" opacity="0.6"/>
<line x1="180" y1="620" x2="180" y2="676" stroke="#D2B48A" stroke-width="3" opacity="0.6"/>
<line x1="560" y1="668" x2="560" y2="724" stroke="#D2B48A" stroke-width="3" opacity="0.6"/>
<line x1="940" y1="620" x2="940" y2="676" stroke="#D2B48A" stroke-width="3" opacity="0.6"/>
<line x1="1320" y1="668" x2="1320" y2="724" stroke="#D2B48A" stroke-width="3" opacity="0.6"/>
<line x1="1700" y1="620" x2="1700" y2="676" stroke="#D2B48A" stroke-width="3" opacity="0.6"/>
<line x1="360" y1="724" x2="360" y2="780" stroke="#D2B48A" stroke-width="3" opacity="0.6"/>
<line x1="820" y1="724" x2="820" y2="780" stroke="#D2B48A" stroke-width="3" opacity="0.6"/>
<line x1="1240" y1="724" x2="1240" y2="780" stroke="#D2B48A" stroke-width="3" opacity="0.6"/>
<line x1="1640" y1="724" x2="1640" y2="780" stroke="#D2B48A" stroke-width="3" opacity="0.6"/>
<line x1="120" y1="668" x2="120" y2="724" stroke="#D2B48A" stroke-width="3" opacity="0.6"/>
<line x1="1020" y1="668" x2="1020" y2="724" stroke="#D2B48A" stroke-width="3" opacity="0.6"/>
<rect x="0" y="608" width="1920" height="16" fill="#F7F1E6"/>
<ellipse cx="1400" cy="716" rx="360" ry="54" fill="#F3D2C1"/>
<ellipse cx="1400" cy="716" rx="316" ry="40" fill="none" stroke="#FFFFFF" stroke-width="5" stroke-dasharray="14 12" opacity="0.8"/>
<path d="M 732 620 L 722 540 L 812 540 L 802 620 Z" fill="#F7F1E6"/>
<rect x="716" y="530" width="102" height="16" rx="6" fill="#E6D7BC"/>
<ellipse cx="730" cy="470" rx="26" ry="58" fill="#6AA981" transform="rotate(-40 730 470)"/>
<ellipse cx="770" cy="440" rx="26" ry="58" fill="#7CB891" transform="rotate(-8 770 440)"/>
<ellipse cx="806" cy="468" rx="26" ry="58" fill="#6AA981" transform="rotate(32 806 468)"/>
<ellipse cx="752" cy="400" rx="26" ry="58" fill="#8FC4A2" transform="rotate(-20 752 400)"/>
<ellipse cx="792" cy="398" rx="26" ry="58" fill="#7CB891" transform="rotate(18 792 398)"/>
<ellipse cx="770" cy="500" rx="26" ry="58" fill="#5C9C79" transform="rotate(0 770 500)"/>
<path d="M 767 532 L 770 420" stroke="#4E8E72" stroke-width="4" fill="none"/>
<rect x="860" y="466" width="320" height="18" rx="6" fill="#C9A57A"/>
<rect x="880" y="484" width="14" height="136" rx="4" fill="#B18D62"/><rect x="1146" y="484" width="14" height="136" rx="4" fill="#B18D62"/>
<rect x="1060" y="484" width="100" height="64" rx="6" fill="#B18D62"/>
<rect x="1076" y="506" width="68" height="6" rx="3" fill="#E6D7BC"/>
<path d="M 900 466 L 1060 466 L 1070 456 L 890 456 Z" fill="#AAB6C2"/>
<rect x="906" y="350" width="148" height="104" rx="8" fill="#53687E"/>
<rect x="914" y="358" width="132" height="88" rx="4" fill="#FFFFFF"/>
<circle cx="930" cy="376" r="7" fill="#F2B04C"/>
<rect x="944" y="371" width="84" height="10" rx="5" fill="#DCE7F2"/>
<circle cx="930" cy="402" r="7" fill="#AEC0DC"/>
<rect x="944" y="397" width="70" height="10" rx="5" fill="#DCE7F2"/>
<circle cx="930" cy="428" r="7" fill="#E0A06A"/>
<rect x="944" y="423" width="58" height="10" rx="5" fill="#DCE7F2"/>
<ellipse cx="1130" cy="462" rx="24" ry="6" fill="#53687E"/>
<path d="M 1130 460 L 1116 400 L 1146 372" stroke="#53687E" stroke-width="6" fill="none" stroke-linecap="round"/>
<path d="M 1128 370 L 1168 352 L 1178 384 Z" fill="#6FB6B0"/>
<rect x="1076" y="430" width="28" height="34" rx="5" fill="#E8705F"/>
<path d="M 1104 438 q 14 0 14 10 q 0 10 -14 10" stroke="#E8705F" stroke-width="5" fill="none"/>
<path d="M 1084 420 q 6 -8 0 -16 M 1096 420 q 6 -8 0 -16" stroke="#C7D3DF" stroke-width="3" fill="none" stroke-linecap="round"/>
<rect x="1000" y="396" width="92" height="120" rx="30" fill="#5C8CB5"/>
<rect x="1014" y="410" width="64" height="92" rx="22" fill="#7FA8CC"/>
<rect x="1039" y="516" width="14" height="46" fill="#53687E"/>
<rect x="986" y="520" width="120" height="30" rx="14" fill="#5C8CB5"/>
<rect x="1041" y="550" width="10" height="44" fill="#53687E"/>
<path d="M 996 604 L 1046 590 L 1096 604" stroke="#53687E" stroke-width="10" fill="none" stroke-linecap="round"/>
<circle cx="996" cy="612" r="8" fill="#3A4650"/><circle cx="1096" cy="612" r="8" fill="#3A4650"/><circle cx="1046" cy="608" r="8" fill="#3A4650"/>
<ellipse cx="1840" cy="332" rx="140" ry="140" fill="url(#lampGlow)"/>
<rect x="1836" y="330" width="8" height="286" fill="#9CAAB6"/>
<ellipse cx="1840" cy="618" rx="38" ry="9" fill="#9CAAB6"/>
<path d="M 1792 336 L 1810 272 L 1870 272 L 1888 336 Z" fill="#F7E3C0"/>
<ellipse cx="1180" cy="726" rx="62" ry="20" fill="#AEBCCA"/>
<ellipse cx="1180" cy="718" rx="62" ry="20" fill="#F4F7FA"/>
<ellipse cx="1180" cy="714" rx="20" ry="7" fill="#C7D3DF"/>
<circle cx="1210" cy="716" r="4" fill="#6FB6B0"/>
<rect x="1560" y="608" width="160" height="112" rx="6" fill="#D9B27C"/>
<rect x="1560" y="608" width="160" height="22" rx="4" fill="#CFA56C"/>
<rect x="1626" y="608" width="28" height="112" fill="#EFD6A6" opacity="0.8"/>
<path d="M 1586 690 l 16 -18 l 16 18" stroke="#B8905C" stroke-width="4" fill="none" stroke-linecap="round"/>
<rect x="1590" y="540" width="104" height="68" rx="6" fill="#E3BF8C"/>
<rect x="1626" y="540" width="30" height="68" fill="#EFD6A6" opacity="0.8"/>
<rect x="1604" y="478" width="70" height="62" rx="6" fill="#6FB6B0"/>
<rect x="1633" y="478" width="12" height="62" fill="#FFE1A8"/>
<rect x="1604" y="500" width="70" height="10" fill="#FFE1A8"/>
<path d="M 1639 478 q -26 -28 -30 -6 q 12 10 30 6 q 26 -28 30 -6 q -12 10 -30 6" fill="#FFE1A8" stroke="#F2B04C" stroke-width="3"/>
<path d="M 1480 740 L 1486 648 L 1552 648 L 1558 740 Z" fill="#E8705F"/>
<path d="M 1502 650 q 0 -30 17 -30 q 17 0 17 30" stroke="#C45A4B" stroke-width="5" fill="none"/>
<rect x="1498" y="676" width="42" height="26" rx="4" fill="#FFFFFF" opacity="0.9"/>
<path d="M 1519 680 L 1521.4 685.7 L 1527.6 686.2 L 1522.9 690.3 L 1524.3 696.3 L 1519 693 L 1513.7 696.3 L 1515.1 690.3 L 1510.4 686.2 L 1516.6 685.7 Z" fill="#F2B04C"/>
<g transform="translate(1300,760)"><rect x="-34.2" y="-103.5" width="22.7" height="103.5" rx="11.2" fill="#3F5A72"/><rect x="11.5" y="-103.5" width="22.7" height="103.5" rx="11.2" fill="#3F5A72"/><rect x="-39.1" y="-14.2" width="32.9" height="14.2" rx="6.8" fill="#3A4650"/><rect x="6.3" y="-14.2" width="32.9" height="14.2" rx="6.8" fill="#3A4650"/><rect x="-38" y="-225" width="76" height="130.7" rx="31.9" fill="#E8A0B4"/><rect x="-48.6" y="-208.1" width="18.2" height="97.4" rx="9" fill="#E8A0B4"/><rect x="-10.3" y="-244.8" width="20.5" height="27.7" fill="#F6D3B6"/><circle cx="0" cy="-258.3" r="39.6" fill="#F6D3B6"/><path d="M -42.8 -238.5 L -42.8 -263.2 A 42.8 42.8 0 0 1 42.8 -263.2 L 42.8 -238.5 L 27 -238.5 L 27 -270 L -27 -270 L -27 -238.5 Z" fill="#54403A"/><rect x="25.9" y="-169.2" width="76.5" height="18.2" rx="9" fill="#E8A0B4"/><circle cx="103.5" cy="-160" r="10.6" fill="#F6D3B6"/><rect x="99" y="-202.5" width="24.8" height="42.8" rx="4.5" fill="#3F4A58"/><rect x="102.4" y="-198" width="18" height="33.8" rx="2.2" fill="#9FD0F0"/></g>
<g transform="translate(1440,768)"><rect x="-23.6" y="-71.3" width="15.7" height="71.3" rx="7.8" fill="#46685C"/><rect x="7.9" y="-71.3" width="15.7" height="71.3" rx="7.8" fill="#46685C"/><rect x="-27" y="-9.8" width="22.6" height="9.8" rx="4.7" fill="#3A4650"/><rect x="4.3" y="-9.8" width="22.6" height="9.8" rx="4.7" fill="#3A4650"/><rect x="-26.2" y="-155" width="52.4" height="90.1" rx="22" fill="#F2B04C"/><rect x="-33.5" y="-143.4" width="12.6" height="67.1" rx="6.2" fill="#F2B04C"/><rect x="-7.1" y="-168.6" width="14.1" height="19.1" fill="#EBBE9B"/><circle cx="0" cy="-177.9" r="27.3" fill="#EBBE9B"/><path d="M -27.3 -178.6 A 27.3 27.3 0 0 1 27.3 -178.6 L 24.5 -184.5 L -24.5 -184.5 Z" fill="#2E2724"/><rect x="17.8" y="-116.6" width="52.7" height="12.6" rx="6.2" fill="#F2B04C"/><circle cx="71.3" cy="-110.2" r="7.3" fill="#EBBE9B"/><rect x="58.9" y="-142.6" width="34.1" height="31" rx="3.1" fill="#E8705F"/><rect x="72.9" y="-142.6" width="6.2" height="31" fill="#FFE1A8"/><path d="M 76 -142.6 q -12.4 -14 -14 -3.1 q 7.8 4.7 14 3.1 q 12.4 -14 14 -3.1 q -7.8 4.7 -14 3.1" fill="#FFE1A8"/></g>
<g transform="translate(1540,300)">
<path d="M -22 -6 L -34 48 L -14 38 L -4 58 L 8 4 Z" fill="#5C97C4"/>
<path d="M 22 -6 L 34 48 L 14 38 L 4 58 L -8 4 Z" fill="#E8705F"/>
<circle cx="0" cy="-24" r="36" fill="#F2B04C"/><circle cx="0" cy="-24" r="26" fill="#FFD27A"/>
<text x="0" y="-13" text-anchor="middle" font-family="Helvetica, Arial, sans-serif" font-size="32" font-weight="700" fill="#B87A1E">1</text>
</g>
<g transform="translate(1210,62)">
<rect x="0" y="0" width="190" height="46" rx="23" fill="#FFFFFF" opacity="0.95"/>
<path d="M 28 10 L 31.4 18.3 L 40.4 19 L 33.6 24.8 L 35.6 33.5 L 28 28.9 L 20.4 33.5 L 22.4 24.8 L 15.6 19 L 24.6 18.3 Z" fill="#F2B04C"/>
<path d="M 62 10 L 65.4 18.3 L 74.4 19 L 67.6 24.8 L 69.6 33.5 L 62 28.9 L 54.4 33.5 L 56.4 24.8 L 49.6 19 L 58.6 18.3 Z" fill="#F2B04C"/>
<path d="M 96 10 L 99.4 18.3 L 108.4 19 L 101.6 24.8 L 103.6 33.5 L 96 28.9 L 88.4 33.5 L 90.4 24.8 L 83.6 19 L 92.6 18.3 Z" fill="#F2B04C"/>
<path d="M 130 10 L 133.4 18.3 L 142.4 19 L 135.6 24.8 L 137.6 33.5 L 130 28.9 L 122.4 33.5 L 124.4 24.8 L 117.6 19 L 126.6 18.3 Z" fill="#F2B04C"/>
<path d="M 164 10 L 167.4 18.3 L 176.4 19 L 169.6 24.8 L 171.6 33.5 L 164 28.9 L 156.4 33.5 L 158.4 24.8 L 151.6 19 L 160.6 18.3 Z" fill="#F8D48E"/>
</g>
<g transform="translate(900,250)">
<path d="M 0 14 C -26 -8 -14 -34 0 -18 C 14 -34 26 -8 0 14 Z" fill="#E8705F" opacity="0.9"/>
</g>
<path d="M 1110 234 Q 1112.9 247.1 1126 250 Q 1112.9 252.9 1110 266 Q 1107.1 252.9 1094 250 Q 1107.1 247.1 1110 234 Z" fill="#F2B04C" opacity="0.9"/>
<path d="M 1800 426 Q 1802.5 437.5 1814 440 Q 1802.5 442.5 1800 454 Q 1797.5 442.5 1786 440 Q 1797.5 437.5 1800 426 Z" fill="#FFFFFF" opacity="0.9"/>
<path d="M 1520 459 Q 1522 468 1531 470 Q 1522 472 1520 481 Q 1518 472 1509 470 Q 1518 468 1520 459 Z" fill="#F2B04C" opacity="0.8"/>
<path d="M 640 528 Q 642.2 537.8 652 540 Q 642.2 542.2 640 552 Q 637.8 542.2 628 540 Q 637.8 537.8 640 528 Z" fill="#FFFFFF" opacity="0.8"/>
<path d="M 870 110 Q 871.8 118.2 880 120 Q 871.8 121.8 870 130 Q 868.2 121.8 860 120 Q 868.2 118.2 870 110 Z" fill="#F2B04C" opacity="0.7"/>
</svg>
